<mxfile host="app.diagrams.net" modified="2023-09-07T12:27:12.616Z" agent="Mozilla/5.0 (Windows NT 10.0; Win64; x64) AppleWebKit/537.36 (KHTML, like Gecko) Chrome/116.0.0.0 Safari/537.36" version="21.7.2" etag="T-V9_ijxud7lLnslN7nK" type="github">
  <diagram name="ページ1" id="ISea0skvDJ0-GTyt_ot8">
    <mxGraphModel>
      <root>
        <mxCell id="0" />
        <mxCell id="1" parent="0" />
      </root>
    </mxGraphModel>
  </diagram>
</mxfile>
